<svg width="265" height="143" viewBox="0 0 265 143" fill="none" xmlns="http://www.w3.org/2000/svg">
<ellipse cx="132.5" cy="101.963" rx="132.5" ry="40.5" fill="#B1C1AC" fill-opacity="0.14"/>
<path fill-rule="evenodd" clip-rule="evenodd" d="M135.881 55.5929L123.911 33.4629L68.3906 40.2429L84.5106 63.4329L135.881 55.5929Z" fill="url(#paint0_radial_17415_72936)"/>
<path fill-rule="evenodd" clip-rule="evenodd" d="M68.3884 40.2441L67.8984 41.2741L84.5084 63.4342L85.7384 63.2442L68.3884 40.2441Z" fill="url(#paint1_radial_17415_72936)"/>
<path fill-rule="evenodd" clip-rule="evenodd" d="M84.5117 63.4395L89.2217 102.809C103.168 109.785 117.528 115.9 132.222 121.119V73.7394L84.5117 63.4395Z" fill="url(#paint2_radial_17415_72936)"/>
<path fill-rule="evenodd" clip-rule="evenodd" d="M84.5117 63.4357L135.882 55.5957L181.952 61.4857L132.202 73.6957L84.5117 63.4357Z" fill="url(#paint3_radial_17415_72936)"/>
<path fill-rule="evenodd" clip-rule="evenodd" d="M89.3906 63.2382L132.201 72.4482L175.021 61.4882L136.501 56.1582L89.3906 63.2382Z" fill="url(#paint4_radial_17415_72936)"/>
<path fill-rule="evenodd" clip-rule="evenodd" d="M132.2 73.7345L110.2 58.6745C110.2 58.6745 74.2 55.3445 58 49.3145L84.51 63.4345L132.2 73.7345Z" fill="#D2715E"/>
<path fill-rule="evenodd" clip-rule="evenodd" d="M58 49.2754L58.42 48.2754C58.42 48.2754 77.08 55.6154 110.77 56.8654L110.2 58.6754C110.2 58.6754 77.55 56.0354 58 49.2754Z" fill="url(#paint5_radial_17415_72936)"/>
<path fill-rule="evenodd" clip-rule="evenodd" d="M110.769 56.8301L132.199 72.4501V73.7001L110.199 58.6301L110.769 56.8301Z" fill="url(#paint6_radial_17415_72936)"/>
<path fill-rule="evenodd" clip-rule="evenodd" d="M135.879 55.5982C135.879 55.5982 139.379 48.5982 145.199 36.1582H198.449L181.999 61.4982L135.879 55.5982Z" fill="url(#paint7_radial_17415_72936)"/>
<path fill-rule="evenodd" clip-rule="evenodd" d="M198.45 36.1426L199.25 37.6426L181.68 63.4326L181.95 61.4826L198.45 36.1426Z" fill="url(#paint8_radial_17415_72936)"/>
<path opacity="0.5" fill-rule="evenodd" clip-rule="evenodd" d="M110.211 109.375V98.0254L127.061 103.335L126.351 114.775L110.211 109.375Z" fill="#FFFFCE"/>
<g style="mix-blend-mode:multiply" opacity="0.5">
<path d="M125.23 113.666L111.43 109.066V99.166L125.85 103.736L125.23 113.666ZM112 108.736L124.8 113.006L125.35 104.136L112 99.876V108.736Z" fill="#C1748D"/>
</g>
<g style="mix-blend-mode:multiply" opacity="0.5">
<path fill-rule="evenodd" clip-rule="evenodd" d="M113.801 101.588L122.641 104.368V105.888L113.801 103.098V101.588Z" fill="#C1748D"/>
</g>
<g style="mix-blend-mode:multiply" opacity="0.5">
<path fill-rule="evenodd" clip-rule="evenodd" d="M113.801 104.455L122.641 107.245V107.995L113.801 105.215V104.455Z" fill="#C1748D"/>
</g>
<path d="M105.762 105.506L107.352 106.016V101.366L106.142 100.986L105.762 105.506Z" fill="#5A4153"/>
<path d="M105.078 101.169L108.458 102.229L106.768 98.1191L105.078 101.169Z" fill="#5A4153"/>
<path d="M100.891 103.975L102.481 104.475V99.8351L101.271 99.4551L100.891 103.975Z" fill="#5A4153"/>
<path d="M100.211 99.6379L103.591 100.698L101.901 96.5879L100.211 99.6379Z" fill="#5A4153"/>
<path opacity="0.36" d="M58 49.2754C58 49.2754 82.76 57.9554 110.2 58.6354L131.48 73.1954L132.2 73.6954V92.2754L85.39 70.7354L84.51 63.3954L58 49.2754Z" fill="#791B40"/>
<g style="mix-blend-mode:soft-light" opacity="0.58">
<path d="M136.5 56.1582V71.1882L175.02 61.4882L136.5 56.1582Z" fill="#FFDD98"/>
</g>
<path style="mix-blend-mode:multiply" opacity="0.5" fill-rule="evenodd" clip-rule="evenodd" d="M89.2188 102.804C89.2188 102.804 97.2988 100.024 105.079 102.224C112.859 104.424 127.079 119.224 127.079 119.224C127.079 119.224 98.9987 108.464 89.2188 102.804Z" fill="url(#paint9_linear_17415_72936)"/>
<g style="mix-blend-mode:multiply" opacity="0.5">
<path fill-rule="evenodd" clip-rule="evenodd" d="M135.26 89.4946C135.4 90.2246 135.77 90.6246 136.63 90.4946C136.888 90.4415 137.115 90.2889 137.261 90.0698C137.407 89.8508 137.461 89.583 137.41 89.3246C137.349 89.0284 137.182 88.7643 136.942 88.5807C136.701 88.3971 136.402 88.3062 136.1 88.3246C135.846 88.3915 135.623 88.5449 135.47 88.7584C135.317 88.972 135.243 89.2323 135.26 89.4946Z" fill="#E3D9D2"/>
<path fill-rule="evenodd" clip-rule="evenodd" d="M156 97.7371C156.085 97.3612 156.294 97.0248 156.593 96.7818C156.892 96.5388 157.265 96.4033 157.65 96.3972C158.246 96.3383 158.844 96.4904 159.34 96.8271C159.615 96.9614 159.832 97.1894 159.953 97.4701C160.074 97.7507 160.091 98.0653 160 98.3571C159.88 98.6498 159.708 98.9177 159.49 99.1472C159.22 99.3572 158.69 99.2172 158.38 99.1472C157.937 99.0737 157.533 98.8473 157.24 98.5071C156.92 98.2471 156 98.5071 156 97.7371Z" fill="#E3D9D2"/>
<path fill-rule="evenodd" clip-rule="evenodd" d="M135.807 86.3337C135.327 86.5337 134.637 87.2637 135.337 87.5737C135.975 87.6813 136.631 87.5796 137.207 87.2837C138.497 86.2837 136.447 85.4337 135.607 86.4837L135.807 86.3337Z" fill="#E3D9D2"/>
<path fill-rule="evenodd" clip-rule="evenodd" d="M136.428 92.6739C136.898 91.8439 137.758 92.7939 137.198 93.2639C137.119 93.3248 137.025 93.3627 136.927 93.3735C136.828 93.3843 136.728 93.3676 136.638 93.3252C136.548 93.2828 136.471 93.2163 136.416 93.1332C136.362 93.05 136.331 92.9534 136.328 92.8539L136.428 92.6739Z" fill="#E3D9D2"/>
<path fill-rule="evenodd" clip-rule="evenodd" d="M137.711 89.5238C138.021 88.9738 138.591 89.6038 138.221 89.9238C138.168 89.9643 138.106 89.9895 138.04 89.9969C137.975 90.0042 137.908 89.9934 137.848 89.9655C137.789 89.9376 137.737 89.8938 137.701 89.8388C137.664 89.7839 137.643 89.7199 137.641 89.6539L137.711 89.5238Z" fill="#E3D9D2"/>
<path fill-rule="evenodd" clip-rule="evenodd" d="M124.178 83.4817C123.098 84.9417 125.078 86.6417 125.858 84.8817C126.278 83.9417 125.468 82.8017 124.548 83.4817H124.178Z" fill="#E3D9D2"/>
<path fill-rule="evenodd" clip-rule="evenodd" d="M127.438 87.7328C127.298 87.4528 127.158 87.5228 127.008 87.7328C126.858 87.9428 126.928 88.0928 127.108 88.3228C127.508 88.8328 127.858 88.8128 128.408 88.4628C128.958 88.1128 129.588 87.4028 128.798 87.0128C128.577 86.9561 128.345 86.9567 128.125 87.0144C127.904 87.0722 127.702 87.1852 127.538 87.3428L127.438 87.7328Z" fill="#E3D9D2"/>
<path fill-rule="evenodd" clip-rule="evenodd" d="M125.667 88.2441C125.587 87.5241 126.667 88.454 126.187 88.844C125.707 89.234 125.537 88.484 125.667 88.194V88.2441Z" fill="#E3D9D2"/>
<path fill-rule="evenodd" clip-rule="evenodd" d="M127.82 85.734C128.11 86.204 128.72 85.5439 128.51 85.2239C128.3 84.9039 127.87 85.4639 127.77 85.6339L127.82 85.734Z" fill="#E3D9D2"/>
<path fill-rule="evenodd" clip-rule="evenodd" d="M116.44 94.2531C116.62 93.6631 117.34 94.2531 117.44 94.5931C117.487 94.8805 117.419 95.1747 117.25 95.4123C117.082 95.6499 116.827 95.8118 116.54 95.8631C115.68 95.9531 115.45 94.6031 116.21 94.3031L116.44 94.2531Z" fill="#E3D9D2"/>
<path fill-rule="evenodd" clip-rule="evenodd" d="M124.5 95.3302C123.99 96.0702 125.73 96.2302 125.72 95.3302C125.72 94.6602 124.72 94.6602 124.5 95.2302V95.3302Z" fill="#E3D9D2"/>
<path fill-rule="evenodd" clip-rule="evenodd" d="M117.278 80.7307C117.207 80.6208 117.168 80.4929 117.167 80.3619C117.166 80.231 117.202 80.1025 117.271 79.9913C117.341 79.8801 117.44 79.791 117.558 79.7342C117.676 79.6775 117.808 79.6554 117.938 79.6707C118.638 79.7707 118.658 80.7507 118.418 81.2307C118.385 81.3393 118.329 81.4395 118.254 81.5243C118.179 81.6091 118.086 81.6765 117.982 81.7218C117.878 81.767 117.766 81.7891 117.652 81.7864C117.539 81.7838 117.428 81.7564 117.326 81.7063C117.224 81.6562 117.135 81.5846 117.063 81.4963C116.992 81.4081 116.941 81.3054 116.914 81.1954C116.886 81.0854 116.883 80.9707 116.905 80.8594C116.926 80.748 116.971 80.6427 117.038 80.5507L117.278 80.7307Z" fill="#E3D9D2"/>
<path fill-rule="evenodd" clip-rule="evenodd" d="M127.629 78.4C127.009 79.87 129.409 79.35 129.539 78.17C129.699 76.73 127.809 77.12 127.629 78.4Z" fill="#E3D9D2"/>
<path fill-rule="evenodd" clip-rule="evenodd" d="M159.889 95.8041C159.209 96.7341 160.999 97.1841 161.139 96.0141C161.059 95.9018 160.956 95.8085 160.836 95.7407C160.716 95.6729 160.582 95.6324 160.445 95.6219C160.308 95.6114 160.17 95.6312 160.041 95.68C159.912 95.7287 159.795 95.8053 159.699 95.9041L159.889 95.8041Z" fill="#E3D9D2"/>
<path fill-rule="evenodd" clip-rule="evenodd" d="M150.578 107.051C151.306 106.088 152.364 105.428 153.548 105.195C154.732 104.963 155.96 105.175 156.998 105.791C157.538 106.161 158.308 106.791 157.658 107.431C157.008 108.071 154.418 107.431 153.658 107.431C152.616 107.514 151.568 107.385 150.578 107.051Z" fill="#E3D9D2"/>
<path fill-rule="evenodd" clip-rule="evenodd" d="M145.348 106.082C145.468 106.942 146.978 106.642 146.758 105.932C146.608 105.462 145.758 105.342 145.638 105.792L145.348 106.082Z" fill="#E3D9D2"/>
<path fill-rule="evenodd" clip-rule="evenodd" d="M90.3204 79.6651C90.0404 80.9951 91.7304 80.7251 91.7304 79.6651C91.7304 78.7851 90.5704 78.4751 90.3204 79.3951V79.6651Z" fill="#E3D9D2"/>
<path fill-rule="evenodd" clip-rule="evenodd" d="M125.86 100.781C125.987 100.58 126.182 100.431 126.41 100.361C127.28 101.511 125.34 102.291 125.86 100.921V100.781Z" fill="#E3D9D2"/>
<path fill-rule="evenodd" clip-rule="evenodd" d="M77.7888 44.8634C76.4388 48.3034 82.1088 45.8634 82.9288 44.3134C83.7488 42.7634 81.6188 42.4034 80.3988 42.6234C78.9988 42.8834 77.8388 43.9134 77.7888 44.8634Z" fill="#E3D9D2"/>
<path fill-rule="evenodd" clip-rule="evenodd" d="M83.0977 45.7361C83.2377 44.9661 84.6677 44.3061 84.4877 45.4661C84.3877 46.1161 83.4877 46.546 83.2177 45.846L83.0977 45.7361Z" fill="#E3D9D2"/>
<path fill-rule="evenodd" clip-rule="evenodd" d="M156.277 45.9213C154.857 47.9213 160.807 47.9213 161.077 45.9213C161.347 43.9213 156.807 44.5813 156.157 45.7713L156.277 45.9213Z" fill="#E3D9D2"/>
<path fill-rule="evenodd" clip-rule="evenodd" d="M160.449 43.595C160.579 42.365 162.279 42.905 161.919 43.595C161.559 44.285 160.759 43.7651 160.449 43.4251V43.595Z" fill="#E3D9D2"/>
<path fill-rule="evenodd" clip-rule="evenodd" d="M165 45.0668C165.551 45.0607 166.093 44.9345 166.59 44.6968C166.45 43.5868 165.07 43.8368 164.75 44.6968C164.75 44.8668 164.91 44.8368 165 44.9368V45.0668Z" fill="#E3D9D2"/>
<path fill-rule="evenodd" clip-rule="evenodd" d="M149.41 47.4016C149.41 46.9316 149.53 46.7016 149.99 46.6816C150.57 47.1516 150.43 48.0816 149.65 47.8916L149.41 47.4016Z" fill="#E3D9D2"/>
<path fill-rule="evenodd" clip-rule="evenodd" d="M147.998 96.2207C145.868 98.0107 150.448 97.4707 148.378 96.4807L147.998 96.2207Z" fill="#E3D9D2"/>
<path fill-rule="evenodd" clip-rule="evenodd" d="M138.999 101.033C138.469 101.573 138.669 102.683 139.609 102.283C140.319 101.973 140.159 100.733 139.289 101.133L138.999 101.033Z" fill="#E3D9D2"/>
<path fill-rule="evenodd" clip-rule="evenodd" d="M143.207 103.94C143.377 103.35 144.127 103.34 144.087 103.94C144.047 104.54 143.557 104.39 143.407 104.04L143.207 103.94Z" fill="#E3D9D2"/>
<path fill-rule="evenodd" clip-rule="evenodd" d="M101.66 78.9635C101.968 78.7836 102.226 78.5291 102.41 78.2235C101.91 77.7835 101.88 78.1235 101.66 78.5435V78.9635Z" fill="#E3D9D2"/>
</g>
<path d="M138.575 93.1079C138.762 92.9508 138.946 92.7905 139.124 92.6255" stroke="#263238" stroke-width="0.366552" stroke-miterlimit="10"/>
<path d="M140.171 91.6048C144.236 87.3008 146.315 81.2041 144.286 76.446C139.818 65.9528 124.654 66.8999 119.757 54.6299C115.087 42.9282 126.271 35.977 131.736 35.038C137.769 33.9965 138.631 39.8719 133.641 41.7045C125 44.8777 115.263 38.8048 113.812 26.8258C112.733 17.8696 118.369 11.2873 120.828 8.88543" stroke="#263238" stroke-width="0.366552" stroke-miterlimit="10" stroke-dasharray="1.47 1.47"/>
<path d="M121.353 8.3872C121.696 8.07216 121.901 7.90478 121.901 7.90478" stroke="#263238" stroke-width="0.366552" stroke-miterlimit="10"/>
<path d="M126.086 3.3914C123.903 1.27222 118.861 5.12785 121.713 7.89639C124.566 10.6649 128.27 5.51057 126.086 3.3914Z" fill="#263238"/>
<path d="M117.255 6.75683C116.702 5.61434 117.803 3.92134 120.223 3.14712C122.642 2.3729 125.506 2.75693 125.506 2.75693C125.506 2.75693 124.034 5.25264 121.931 6.66847C119.827 8.0843 117.819 7.90559 117.255 6.75683Z" fill="#EBEBEB"/>
<path d="M125.505 2.75843C124.359 3.36698 123.201 3.94468 122.039 4.51591C120.877 5.08714 119.7 5.63743 118.508 6.15039C119.654 5.54183 120.817 4.96564 121.979 4.39441C123.141 3.82318 124.317 3.2729 125.505 2.75843Z" fill="#263238"/>
<path d="M118.957 4.57812C119.774 4.54292 120.592 4.60155 121.395 4.75287C120.987 4.7703 120.579 4.76389 120.173 4.73363C119.765 4.70552 119.359 4.65359 118.957 4.57812Z" fill="#263238"/>
<path d="M122.574 4.1816C122.403 4.57049 122.211 4.94963 121.999 5.3173C121.794 5.68804 121.569 6.04719 121.325 6.3931C121.495 6.00376 121.687 5.62457 121.9 5.2574C122.105 4.88666 122.33 4.52751 122.574 4.1816Z" fill="#263238"/>
<path d="M122.574 3.36914C122.779 3.36313 122.984 3.37956 123.185 3.41812C123.389 3.45851 123.586 3.52359 123.774 3.61194C123.569 3.61893 123.364 3.6025 123.163 3.56297C122.959 3.52258 122.762 3.45749 122.574 3.36914Z" fill="#263238"/>
<path d="M122.897 12.303C124.056 12.8206 125.715 11.6699 126.414 9.22751C127.114 6.78517 126.645 3.93363 126.645 3.93363C126.645 3.93363 124.197 5.48251 122.836 7.6164C121.475 9.75029 121.731 11.7806 122.897 12.303Z" fill="#EBEBEB"/>
<path d="M126.642 3.93278C126.054 5.07536 125.527 6.27217 124.989 7.45452C124.45 8.63686 123.938 9.82184 123.463 11.0289C124.051 9.8863 124.578 8.68948 125.113 7.50886C125.648 6.32823 126.162 5.1383 126.642 3.93278Z" fill="#263238"/>
<path d="M125.026 10.5418C125.032 10.1354 125.014 9.72905 124.973 9.32473C124.935 8.9193 124.87 8.5167 124.781 8.11929C124.775 8.52565 124.793 8.93202 124.834 9.33634C124.873 9.74175 124.937 10.1443 125.026 10.5418Z" fill="#263238"/>
<path d="M125.311 6.90765C124.922 7.08701 124.544 7.28788 124.178 7.50933C123.81 7.72732 123.455 7.96709 123.115 8.22736C123.504 8.04801 123.882 7.84713 124.248 7.62568C124.617 7.40802 124.972 7.16824 125.311 6.90765Z" fill="#263238"/>
<path d="M126.12 6.88558C126.122 6.68095 126.1 6.47685 126.055 6.2772C126.01 6.07747 125.943 5.88333 125.855 5.69833C125.852 5.90304 125.874 6.10734 125.921 6.30671C125.964 6.50693 126.031 6.70127 126.12 6.88558Z" fill="#263238"/>
<path d="M126.086 3.38988C125.935 3.54633 125.74 3.65437 125.528 3.7003C125.315 3.74623 125.093 3.728 124.891 3.64791C124.689 3.56781 124.514 3.42947 124.391 3.25038C124.267 3.0713 124.199 2.85953 124.196 2.6419C124.193 2.42427 124.254 2.21058 124.372 2.02787C124.491 1.84515 124.661 1.70164 124.86 1.61551C125.06 1.52939 125.281 1.50452 125.495 1.54405C125.709 1.58358 125.907 1.68574 126.063 1.83759C126.271 2.0406 126.391 2.31797 126.395 2.60892C126.399 2.89988 126.288 3.1807 126.086 3.38988Z" fill="#455A64"/>
<path d="M127.664 4.92113C127.513 5.07758 127.318 5.18562 127.106 5.23155C126.893 5.27748 126.671 5.25925 126.469 5.17916C126.267 5.09907 126.093 4.96072 125.969 4.78163C125.845 4.60255 125.777 4.39078 125.774 4.17315C125.771 3.95552 125.832 3.74182 125.951 3.55911C126.069 3.37639 126.239 3.23288 126.439 3.14675C126.638 3.06063 126.859 3.03576 127.073 3.07529C127.287 3.11482 127.485 3.21699 127.641 3.36884C127.849 3.57185 127.969 3.84922 127.973 4.14017C127.978 4.43113 127.866 4.71195 127.664 4.92113Z" fill="#455A64"/>
<path fill-rule="evenodd" clip-rule="evenodd" d="M132.199 73.7341L181.999 61.4941L176.169 103.084C176.169 103.084 164.999 112.734 132.199 121.114V73.7341Z" fill="url(#paint10_radial_17415_72936)"/>
<path fill-rule="evenodd" clip-rule="evenodd" d="M181.999 61.4941L132.199 73.7341L148.569 80.9241C148.569 80.9241 172.569 80.3741 181.449 76.9741C190.329 73.5741 207.629 63.6241 207.629 63.6241L181.999 61.4941Z" fill="url(#paint11_radial_17415_72936)"/>
<path fill-rule="evenodd" clip-rule="evenodd" d="M207.631 63.5879L207.031 65.2279C207.031 65.2279 193.551 73.6979 181.031 78.1279C168.201 82.6579 148.621 82.8079 148.621 82.8079V80.8879C148.621 80.8879 170.681 80.5879 181.501 76.9379C188.581 74.5279 207.631 63.5879 207.631 63.5879Z" fill="url(#paint12_radial_17415_72936)"/>
<path fill-rule="evenodd" clip-rule="evenodd" d="M132.199 73.0645V74.4045L148.569 82.8045V80.8845L132.199 73.0645Z" fill="#EE946E"/>
<path style="mix-blend-mode:multiply" opacity="0.69" fill-rule="evenodd" clip-rule="evenodd" d="M179.349 77.6795C179.349 77.6795 159.119 71.7595 148.929 71.1895C138.739 70.6195 132.199 73.0695 132.199 73.0695L148.569 80.8895C148.569 80.8895 169.999 80.3795 179.349 77.6795Z" fill="url(#paint13_linear_17415_72936)"/>
<defs>
<radialGradient id="paint0_radial_17415_72936" cx="0" cy="0" r="1" gradientUnits="userSpaceOnUse" gradientTransform="translate(102.331 35.1629) scale(24.17 24.17)">
<stop offset="0.02" stop-color="#FFA874"/>
<stop offset="1" stop-color="#F49372"/>
</radialGradient>
<radialGradient id="paint1_radial_17415_72936" cx="0" cy="0" r="1" gradientUnits="userSpaceOnUse" gradientTransform="translate(76.8684 41.5541) scale(13 13)">
<stop stop-color="#FFCF84"/>
<stop offset="0.98" stop-color="#FFB88B"/>
</radialGradient>
<radialGradient id="paint2_radial_17415_72936" cx="0" cy="0" r="1" gradientUnits="userSpaceOnUse" gradientTransform="translate(108.492 66.7195) scale(32.7 32.7)">
<stop offset="0.02" stop-color="#FFA874"/>
<stop offset="1" stop-color="#F49372"/>
</radialGradient>
<radialGradient id="paint3_radial_17415_72936" cx="0" cy="0" r="1" gradientUnits="userSpaceOnUse" gradientTransform="translate(133.512 56.6257) scale(28.3 28.3)">
<stop stop-color="#FFCF84"/>
<stop offset="0.98" stop-color="#FFB88B"/>
</radialGradient>
<radialGradient id="paint4_radial_17415_72936" cx="0" cy="0" r="1" gradientUnits="userSpaceOnUse" gradientTransform="translate(132.451 57.0782) scale(24.93 24.93)">
<stop offset="0.02" stop-color="#BD4D4D"/>
<stop offset="1" stop-color="#9F3E54"/>
</radialGradient>
<radialGradient id="paint5_radial_17415_72936" cx="0" cy="0" r="1" gradientUnits="userSpaceOnUse" gradientTransform="translate(84.54 48.8254) scale(15.43 15.43)">
<stop stop-color="#FFCF84"/>
<stop offset="0.98" stop-color="#FFB88B"/>
</radialGradient>
<radialGradient id="paint6_radial_17415_72936" cx="0" cy="0" r="1" gradientUnits="userSpaceOnUse" gradientTransform="translate(121.269 57.7901) scale(10.64 10.64)">
<stop offset="0.02" stop-color="#BD4D4D"/>
<stop offset="1" stop-color="#9F3E54"/>
</radialGradient>
<radialGradient id="paint7_radial_17415_72936" cx="0" cy="0" r="1" gradientUnits="userSpaceOnUse" gradientTransform="translate(167.339 37.5982) scale(21.61 21.61)">
<stop stop-color="#FFCF84"/>
<stop offset="0.98" stop-color="#FFB88B"/>
</radialGradient>
<radialGradient id="paint8_radial_17415_72936" cx="0" cy="0" r="1" gradientUnits="userSpaceOnUse" gradientTransform="translate(190.52 37.7026) scale(14.97 14.97)">
<stop offset="0.02" stop-color="#BD4D4D"/>
<stop offset="1" stop-color="#9F3E54"/>
</radialGradient>
<linearGradient id="paint9_linear_17415_72936" x1="89.2188" y1="110.304" x2="127.059" y2="110.304" gradientUnits="userSpaceOnUse">
<stop stop-color="#D3B8D6"/>
<stop offset="1" stop-color="white"/>
</linearGradient>
<radialGradient id="paint10_radial_17415_72936" cx="0" cy="0" r="1" gradientUnits="userSpaceOnUse" gradientTransform="translate(151.949 102.874) scale(33.85 33.85)">
<stop offset="0.02" stop-color="#BD4D4D"/>
<stop offset="1" stop-color="#9F3E54"/>
</radialGradient>
<radialGradient id="paint11_radial_17415_72936" cx="0" cy="0" r="1" gradientUnits="userSpaceOnUse" gradientTransform="translate(170.139 62.5941) scale(22.99 22.99)">
<stop stop-color="#FFCF84"/>
<stop offset="0.98" stop-color="#FFB88B"/>
</radialGradient>
<radialGradient id="paint12_radial_17415_72936" cx="0" cy="0" r="1" gradientUnits="userSpaceOnUse" gradientTransform="translate(178.271 64.6779) scale(19.01 19.01)">
<stop offset="0.02" stop-color="#BD4D4D"/>
<stop offset="1" stop-color="#9F3E54"/>
</radialGradient>
<linearGradient id="paint13_linear_17415_72936" x1="132.199" y1="75.9995" x2="179.349" y2="75.9995" gradientUnits="userSpaceOnUse">
<stop stop-color="white"/>
<stop offset="1" stop-color="#D3B8D6"/>
</linearGradient>
</defs>
</svg>
